<?xml version="1.0" encoding="UTF-8"?><!DOCTYPE svg PUBLIC "-//W3C//DTD SVG 1.1//EN" "http://www.w3.org/Graphics/SVG/1.1/DTD/svg11.dtd"><svg xmlns="http://www.w3.org/2000/svg" xmlns:xlink="http://www.w3.org/1999/xlink"><defs/><symbol id="layout-3d" viewBox="0 0 48 48"><path fill-rule="evenodd" clip-rule="evenodd" d="M1.5 10A1.5 1.5 0 000 11.5v25A1.5 1.5 0 001.5 38h9a1.5 1.5 0 001.5-1.5v-25a1.5 1.5 0 00-1.5-1.5h-9zm34 0a1.5 1.5 0 00-1.5 1.5v25a1.5 1.5 0 001.5 1.5h11a1.5 1.5 0 001.5-1.5v-25a1.5 1.5 0 00-1.5-1.5h-11z"/><rect style="fill: var(--opacity, #fff)" opacity=".3" x="16" y="10" width="14" height="28" rx="1.5" fill="#000"/></symbol><symbol id="layout-4-blocks" viewBox="0 0 18 18" fill="none" xmlns="http://www.w3.org/2000/svg">
  <path fill-rule="evenodd" clip-rule="evenodd" d="M5.67792 0.666626H3.14647C1.77576 0.666626 0.666687 1.78533 0.666687 3.16289V5.71632C0.666687 7.09332 1.776 8.21258 3.14647 8.21258H5.67792C7.04839 8.21258 8.1577 7.09332 8.1577 5.71632V3.16289C8.1577 1.78533 7.04863 0.666626 5.67792 0.666626ZM3.14646 1.82941H5.67791C6.40417 1.82941 6.99491 2.42528 6.99491 3.16288V5.71631C6.99491 6.45343 6.40386 7.04979 5.67791 7.04979H3.14646C2.42052 7.04979 1.82947 6.45343 1.82947 5.71631V3.16288C1.82947 2.42528 2.42021 1.82941 3.14646 1.82941ZM14.8544 0.666626H12.3221C10.9514 0.666626 9.84234 1.78533 9.84234 3.16289V5.71632C9.84234 7.09332 10.9517 8.21258 12.3221 8.21258H14.8544C16.2242 8.21258 17.3334 7.09316 17.3334 5.71632V3.16289C17.3334 1.78549 16.2244 0.666626 14.8544 0.666626ZM12.3221 1.82941H14.8544C15.5799 1.82941 16.1706 2.42536 16.1706 3.16288V5.71631C16.1706 6.45335 15.5796 7.04979 14.8544 7.04979H12.3221C11.5962 7.04979 11.0051 6.45343 11.0051 5.71631V3.16288C11.0051 2.42528 11.5959 1.82941 12.3221 1.82941ZM3.14647 9.78734H5.67792C7.04879 9.78734 8.1577 10.9062 8.1577 12.2844V14.837C8.1577 16.2146 7.04863 17.3333 5.67792 17.3333H3.14647C1.77576 17.3333 0.666687 16.2146 0.666687 14.837V12.2844C0.666687 10.9062 1.7756 9.78734 3.14647 9.78734ZM5.67791 10.9501H3.14646C2.42012 10.9501 1.82947 11.5461 1.82947 12.2844V14.837C1.82947 15.5746 2.42021 16.1705 3.14646 16.1705H5.67791C6.40417 16.1705 6.99491 15.5746 6.99491 14.837V12.2844C6.99491 11.5461 6.40425 10.9501 5.67791 10.9501ZM14.8544 9.78734H12.3221C10.9513 9.78734 9.84234 10.9062 9.84234 12.2844V14.837C9.84234 16.2146 10.9514 17.3333 12.3221 17.3333H14.8544C16.2244 17.3333 17.3334 16.2144 17.3334 14.837V12.2844C17.3334 10.9064 16.2246 9.78734 14.8544 9.78734ZM12.3221 10.9501H14.8544C15.58 10.9501 16.1706 11.5462 16.1706 12.2844V14.837C16.1706 15.5745 15.5799 16.1705 14.8544 16.1705H12.3221C11.5959 16.1705 11.0051 15.5746 11.0051 14.837V12.2844C11.0051 11.5461 11.5958 10.9501 12.3221 10.9501Z" fill="#4D4D4D"/>
</symbol><symbol id="layout-arrange" viewBox="0 0 48 48"><path fill-rule="evenodd" clip-rule="evenodd" d="M9.5 8A1.5 1.5 0 008 9.5v5A1.5 1.5 0 009.5 16h11a1.5 1.5 0 001.5-1.5v-5A1.5 1.5 0 0020.5 8h-11zm18 24a1.5 1.5 0 00-1.5 1.5v5a1.5 1.5 0 001.5 1.5h11a1.5 1.5 0 001.5-1.5v-5a1.5 1.5 0 00-1.5-1.5h-11z"/><path style="fill: var(--opacity, #fff)" opacity=".3" fill-rule="evenodd" clip-rule="evenodd" d="M27.5 8A1.5 1.5 0 0026 9.5v17a1.5 1.5 0 001.5 1.5h11a1.5 1.5 0 001.5-1.5v-17A1.5 1.5 0 0038.5 8h-11zm-18 12A1.5 1.5 0 008 21.5v17A1.5 1.5 0 009.5 40h11a1.5 1.5 0 001.5-1.5v-17a1.5 1.5 0 00-1.5-1.5h-11z"/></symbol><symbol id="layout-bottom-panel" viewBox="0 0 48 48"><rect style="fill: var(--opacity, #fff)" opacity=".3" x="4" y="32" width="38" height="8" rx="1" fill="#000"/><rect x="4" y="10" width="38" height="20" rx="1" fill="#000"/></symbol><symbol id="layout-grid" viewBox="0 0 48 48"><rect style="fill: var(--opacity, #fff)" opacity=".3" x="8" y="8" width="8" height="8" rx="1" fill="#000"/><path fill-rule="evenodd" clip-rule="evenodd" d="M21 8a1 1 0 00-1 1v6a1 1 0 001 1h6a1 1 0 001-1V9a1 1 0 00-1-1h-6zM9 20a1 1 0 00-1 1v6a1 1 0 001 1h6a1 1 0 001-1v-6a1 1 0 00-1-1H9zm11 1a1 1 0 011-1h6a1 1 0 011 1v6a1 1 0 01-1 1h-6a1 1 0 01-1-1v-6zM33 8a1 1 0 00-1 1v6a1 1 0 001 1h6a1 1 0 001-1V9a1 1 0 00-1-1h-6zm-1 13a1 1 0 011-1h6a1 1 0 011 1v6a1 1 0 01-1 1h-6a1 1 0 01-1-1v-6zM9 32a1 1 0 00-1 1v6a1 1 0 001 1h6a1 1 0 001-1v-6a1 1 0 00-1-1H9zm11 1a1 1 0 011-1h6a1 1 0 011 1v6a1 1 0 01-1 1h-6a1 1 0 01-1-1v-6zm13-1a1 1 0 00-1 1v6a1 1 0 001 1h6a1 1 0 001-1v-6a1 1 0 00-1-1h-6z"/></symbol><symbol id="layout-horizontal-2" viewBox="0 0 48 48"><rect x="8" y="10" width="32" height="12" rx="1.5" fill="#000"/><rect style="fill: var(--opacity, #fff)" opacity=".3" x="8" y="26" width="32" height="12" rx="1.5" fill="#000"/></symbol><symbol id="layout-horizontal" viewBox="0 0 18 14" fill="none" xmlns="http://www.w3.org/2000/svg">
  <rect x="4" y="0.333374" width="13.3333" height="1.25" rx="0.625" fill="#4D4D4D"/>
  <ellipse cx="1.29169" cy="0.958374" rx="0.625" ry="0.625" fill="#4D4D4D"/>
  <ellipse cx="1.29169" cy="12.625" rx="0.625" ry="0.625" fill="#4D4D4D"/>
  <ellipse cx="1.29169" cy="6.79175" rx="0.625" ry="0.625" fill="#4D4D4D"/>
  <rect x="4" y="12" width="13.3333" height="1.25" rx="0.625" fill="#4D4D4D"/>
  <rect x="4" y="6.16675" width="13.3333" height="1.25" rx="0.625" fill="#4D4D4D"/>
</symbol><symbol id="layout-left-panel-1" viewBox="0 0 48 48"><rect x="18" y="10" width="26" height="28" rx="1.5" fill="#000"/><rect style="fill: var(--opacity, #fff)" opacity=".3" x="4" y="10" width="10" height="28" rx="1" fill="#000"/></symbol><symbol id="layout-left-panel-2" viewBox="0 0 48 48"><path fill-rule="evenodd" clip-rule="evenodd" d="M18 9a1 1 0 011-1h24a1 1 0 011 1v6a1 1 0 01-1 1H19a1 1 0 01-1-1V9zm0 12a1 1 0 011-1h24a1 1 0 011 1v6a1 1 0 01-1 1H19a1 1 0 01-1-1v-6zm1 11a1 1 0 00-1 1v6a1 1 0 001 1h24a1 1 0 001-1v-6a1 1 0 00-1-1H19z"/><rect style="fill: var(--opacity, #fff)" opacity=".3" x="4" y="8" width="10" height="32" rx="1" fill="#000"/></symbol><symbol id="layout-right-panel-1" viewBox="0 0 48 48"><rect x="4" y="10" width="26" height="28" rx="1.5" fill="#000"/><rect style="fill: var(--opacity, #fff)" opacity=".3" x="34" y="10" width="10" height="28" rx="1" fill="#000"/></symbol><symbol id="layout-right-panel-2" viewBox="0 0 48 48"><path fill-rule="evenodd" clip-rule="evenodd" d="M19.5 10a1.5 1.5 0 00-1.5 1.5v9a1.5 1.5 0 001.5 1.5h23a1.5 1.5 0 001.5-1.5v-9a1.5 1.5 0 00-1.5-1.5h-23zm0 16a1.5 1.5 0 00-1.5 1.5v9a1.5 1.5 0 001.5 1.5h23a1.5 1.5 0 001.5-1.5v-9a1.5 1.5 0 00-1.5-1.5h-23z"/><rect style="fill: var(--opacity, #fff)" opacity=".3" x="4" y="10" width="10" height="28" rx="1" fill="#000"/></symbol><symbol id="layout-top-panel-1" viewBox="0 0 48 48"><rect x="4" y="8" width="38" height="8" rx="1" fill="#000"/><path style="fill: var(--opacity, #fff)" opacity=".3" fill-rule="evenodd" clip-rule="evenodd" d="M4 21a1 1 0 011-1h8a1 1 0 011 1v18a1 1 0 01-1 1H5a1 1 0 01-1-1V21zm14 0a1 1 0 011-1h8a1 1 0 011 1v18a1 1 0 01-1 1h-8a1 1 0 01-1-1V21zm15-1a1 1 0 00-1 1v18a1 1 0 001 1h8a1 1 0 001-1V21a1 1 0 00-1-1h-8z"/></symbol><symbol id="layout-top-panel-2" viewBox="0 0 48 48"><path fill-rule="evenodd" clip-rule="evenodd" d="M5 8a1 1 0 00-1 1v6a1 1 0 001 1h36a1 1 0 001-1V9a1 1 0 00-1-1H5zm14 12a1 1 0 00-1 1v18a1 1 0 001 1h22a1 1 0 001-1V21a1 1 0 00-1-1H19z"/><rect style="fill: var(--opacity, #fff)" opacity=".3" x="4" y="20" width="10" height="20" rx="1" fill="#000"/></symbol><symbol id="layout-top-panel-3" viewBox="0 0 48 48"><path fill-rule="evenodd" clip-rule="evenodd" d="M5 8a1 1 0 00-1 1v6a1 1 0 001 1h36a1 1 0 001-1V9a1 1 0 00-1-1H5zm0 12a1 1 0 00-1 1v18a1 1 0 001 1h22a1 1 0 001-1V21a1 1 0 00-1-1H5z"/><rect style="fill: var(--opacity, #fff)" opacity=".3" x="32" y="20" width="10" height="20" rx="1" fill="#000"/></symbol><symbol id="layout-top-panel-4" viewBox="0 0 48 48"><path fill-rule="evenodd" clip-rule="evenodd" d="M4 9a1 1 0 011-1h36a1 1 0 011 1v6a1 1 0 01-1 1H5a1 1 0 01-1-1V9zm0 12a1 1 0 011-1h22a1 1 0 011 1v6a1 1 0 01-1 1H5a1 1 0 01-1-1v-6zm1 11a1 1 0 00-1 1v6a1 1 0 001 1h22a1 1 0 001-1v-6a1 1 0 00-1-1H5z"/><rect style="fill: var(--opacity, #fff)" opacity=".3" x="32" y="20" width="10" height="20" rx="1" fill="#000"/></symbol><symbol id="layout-top-panel-5" viewBox="0 0 48 48"><path fill-rule="evenodd" clip-rule="evenodd" d="M4 9a1 1 0 011-1h36a1 1 0 011 1v6a1 1 0 01-1 1H5a1 1 0 01-1-1V9zm14 12a1 1 0 011-1h22a1 1 0 011 1v6a1 1 0 01-1 1H19a1 1 0 01-1-1v-6zm1 11a1 1 0 00-1 1v6a1 1 0 001 1h22a1 1 0 001-1v-6a1 1 0 00-1-1H19z"/><rect style="fill: var(--opacity, #fff)" opacity=".3" x="4" y="20" width="10" height="20" rx="1" fill="#000"/></symbol><symbol id="layout-top-panel-6" viewBox="0 0 48 48"><rect x="4" y="10" width="38" height="8" rx="1" fill="#000"/><rect style="fill: var(--opacity, #fff)" opacity=".3" x="4" y="22" width="38" height="20" rx="1" fill="#000"/></symbol><symbol id="layout-vertical" viewBox="0 0 48 48"><rect x="10" y="8" width="12" height="32" rx="1.5" fill="#000"/><rect style="fill: var(--opacity, #fff)" opacity=".3" x="26" y="8" width="12" height="32" rx="1.5" fill="#000"/></symbol></svg>
